<svg xmlns="http://www.w3.org/2000/svg" id="Layer_1" x="0" y="0" enable-background="new 0 0 60 " version="1.1" viewBox="0 0 18 18" xml:space="preserve"><path id="XMLID_1220_" fill="none" stroke="#0F9AFE" stroke-miterlimit="10" d="M5.5,17h3C8.8,17,9,16.8,9,16.5v-2.9C9,13.3,9.3,13,9.6,13h0.8c0.3,0,0.6,0.3,0.6,0.6v2.9  c0,0.3,0.2,0.5,0.5,0.5h3c0.3,0,0.5-0.2,0.5-0.5v-7C15,9.2,14.8,9,14.5,9h-9C5.2,9,5,9.2,5,9.5v7C5,16.8,5.2,17,5.5,17z"/><path id="XMLID_1219_" fill="none" stroke="#0F9AFE" stroke-miterlimit="10" d="M4.2,8.1l5.4-5c0.2-0.2,0.6-0.2,0.8,0l5.4,5C16.2,8.5,15.9,9,15.4,9H4.6  C4.1,9,3.8,8.5,4.2,8.1z"/></svg>